<?xml version="1.0" encoding="utf-8"?>
<!-- Generator: Adobe Illustrator 27.0.1, SVG Export Plug-In . SVG Version: 6.00 Build 0)  -->
<svg version="1.1" id="Layer_1" xmlns="http://www.w3.org/2000/svg" xmlns:xlink="http://www.w3.org/1999/xlink" x="0px" y="0px"
	 viewBox="0 0 128 128" style="enable-background:new 0 0 128 128;" xml:space="preserve">
<style type="text/css">
	.st0{fill:url(#path4333_00000096749565389190846970000012463929811609043352_);}
	.st1{fill:url(#path2230_00000089576036156987895710000002101332884677964990_);}
	.st2{opacity:0.498;}
	.st3{fill:none;stroke:#161B28;}
	.st4{opacity:0.4;enable-background:new    ;}
	.st5{fill:url(#SVGID_1_);}
	.st6{opacity:0.15;enable-background:new    ;}
	
		.st7{fill:none;stroke:url(#SVGID_00000147915490437984334970000004047553213623750533_);stroke-linecap:round;stroke-linejoin:round;}
	.st8{opacity:0.2;enable-background:new    ;}
	.st9{fill:url(#SVGID_00000165198100219359742570000009053499920643659926_);}
	.st10{fill:url(#SVGID_00000064355730664955581080000003439603935786748088_);}
	.st11{opacity:0.3;enable-background:new    ;}
	.st12{fill:url(#SVGID_00000024700648278151261000000012825766954635475886_);}
	.st13{fill:url(#SVGID_00000151509206592579132350000010615976177499214525_);}
	.st14{opacity:0.3506;enable-background:new    ;}
	.st15{fill:none;stroke:url(#SVGID_00000170271574422659087140000018171988922256907944_);stroke-width:0.5035;}
	.st16{opacity:0.4329;enable-background:new    ;}
	.st17{fill:none;stroke:url(#SVGID_00000103968911710742301370000015626684452524671665_);stroke-width:0.5;}
	.st18{opacity:0.4632;enable-background:new    ;}
	.st19{fill:none;stroke:url(#SVGID_00000162340339458153825580000017693027793468536749_);stroke-width:0.398;}
	.st20{fill:none;stroke:#8C8D94;stroke-width:1.0275;}
	.st21{fill:#D3D3D3;stroke:#777777;stroke-width:0.7823;stroke-linecap:round;}
	.st22{fill:#D3D3D3;stroke:#777777;stroke-width:1.3256;stroke-linecap:round;}
	.st23{fill:#D3D3D3;stroke:#777777;stroke-width:1.2933;stroke-linecap:round;}
	.st24{fill:#D3D3D3;stroke:#777777;stroke-width:0.9796;stroke-linecap:round;}
	.st25{fill:url(#path4333_00000056389816586343653930000003497904140253085097_);}
	.st26{fill:url(#path5418_00000119103878570036757090000006069672669882724253_);}
	.st27{fill:none;stroke:#161B28;stroke-width:0.8018;stroke-opacity:0.498;}
	.st28{opacity:0.7;fill:url(#path3914_00000013175527962480571240000018362285087338935736_);enable-background:new    ;}
	
		.st29{opacity:0.7;fill:none;stroke:url(#path4564-1-6_00000176731576012308204320000013848528677023841438_);stroke-width:0.8018;stroke-linecap:round;stroke-linejoin:round;enable-background:new    ;}
	.st30{opacity:0.1;enable-background:new    ;}
	
		.st31{fill:url(#path3902_00000021807651223049765040000013236906633713267098_);stroke:#161B28;stroke-width:0.8018;stroke-opacity:0.498;}
	.st32{opacity:0.5;fill:none;stroke:#FFFFFF;stroke-width:0.8018;stroke-linecap:round;enable-background:new    ;}
</style>
<g id="Layer_1_00000033340570487569990950000005185626594244492430_">
	
		<radialGradient id="path4333_00000030487313015899783540000012899234813140900539_" cx="64" cy="5955.0776" r="37.576" gradientTransform="matrix(1 0 0 0.3395 0 -1912.3489)" gradientUnits="userSpaceOnUse">
		<stop  offset="0" style="stop-color:#000000"/>
		<stop  offset="1" style="stop-color:#000000;stop-opacity:0"/>
	</radialGradient>
	<path id="path4333" style="fill:url(#path4333_00000030487313015899783540000012899234813140900539_);" d="M64,96.8
		c21.2,0,38.9,5.6,38,12.6c-1.1,7-18.8,12.6-38,12.6s-36.9-5.6-38-12.6C25.1,102.4,42.8,96.8,64,96.8z"/>
	
		<linearGradient id="path2230_00000070828201357050806150000003509511491544573583_" gradientUnits="userSpaceOnUse" x1="-945.1414" y1="599.0879" x2="-934.5474" y2="599.0879" gradientTransform="matrix(2.9503 0 0 3.4716 2821.6199 -2005.2958)">
		<stop  offset="0" style="stop-color:#8D909A"/>
		<stop  offset="1" style="stop-color:#D9D9D9"/>
	</linearGradient>
	<path id="path2230" style="fill:url(#path2230_00000070828201357050806150000003509511491544573583_);" d="M26.9,34
		c-2.7,24.3-2,48,1.4,72.4c1.1,6.7,12.8,13.3,36.1,13.3c23.4,0,33.3-6.2,34-11.2c3.5-24.3,3.9-48.9,1.2-73.2c-0.1,0-21.2-6.2-40.4-6
		C44.3,29.4,27,34,26.9,34z"/>
	<g id="path4368" class="st2">
		<path class="st3" d="M27.6,33.4c-2.7,24.3-2.3,48.8,1.2,73.2c1.1,6.7,12.8,13.1,36.1,13.1c23.4,0,33.3-6.3,34.4-13.1
			c3.5-24.3,3.1-48,0.4-72.2c-0.1,0-17.8-5.2-36.6-5.2C41,29.1,27.9,33.4,27.6,33.4z"/>
	</g>
	<g id="path3212" class="st4">
		
			<radialGradient id="SVGID_1_" cx="-934.3686" cy="-340.0704" r="14.7959" gradientTransform="matrix(0 4.041 -3.9962 0 -1321.6943 3821.4795)" gradientUnits="userSpaceOnUse">
			<stop  offset="0" style="stop-color:#FFFFFF"/>
			<stop  offset="1" style="stop-color:#FFFFFF;stop-opacity:0"/>
		</radialGradient>
		<path class="st5" d="M27.7,34.3c-2.9,24-2.1,47.4,1.3,71.5c1.1,6.8,17.2,14.4,34.9,14.4s33.8-7.6,35-14.4
			c3.2-23.8,3.5-47.9,0.5-71.6c0.1,0-7.9,6-34.6,5.7C35.4,39.7,27.6,34.3,27.7,34.3z"/>
	</g>
	<g id="path2206" class="st6">
		
			<linearGradient id="SVGID_00000063628263626195186790000015877766077080200598_" gradientUnits="userSpaceOnUse" x1="-950.4153" y1="438.5789" x2="-950.4153" y2="464.0018" gradientTransform="matrix(3.0601 0 0 4.6826 2971.9207 -2052.7678)">
			<stop  offset="0" style="stop-color:#FFFFFF"/>
			<stop  offset="1" style="stop-color:#FFFFFF;stop-opacity:0"/>
		</linearGradient>
		
			<path style="fill:none;stroke:url(#SVGID_00000063628263626195186790000015877766077080200598_);stroke-linecap:round;stroke-linejoin:round;" d="
			M26.8,34.9c-2.6,26.5-0.7,45.7,3.1,72c1.3,6.5,27.7,11.4,34.9,11.7c7.3,0.3,31.9-5.2,33.2-11.7c0.4-2.5,3.1-21.1,3.4-39.7
			c0.6-18.6-1.6-29.5-1.8-31.9c-0.7-2.6-15.4-6.1-36.5-6.1C42.1,29.2,27.4,30.2,26.8,34.9z"/>
	</g>
	<g id="rect3244" class="st8">
		
			<linearGradient id="SVGID_00000009552936180073421570000002121800062449297042_" gradientUnits="userSpaceOnUse" x1="-764.7038" y1="638.7047" x2="-759.8812" y2="652.4977" gradientTransform="matrix(2.1601 0 0 3.2093 1695.953 -1995.3713)">
			<stop  offset="0" style="stop-color:#FFFFFF"/>
			<stop  offset="1" style="stop-color:#FFFFFF;stop-opacity:0"/>
		</linearGradient>
		<path style="fill:url(#SVGID_00000009552936180073421570000002121800062449297042_);" d="M45,39.9c0,0,2.3,0.7,5.2,1.1
			c3.3,0.4,4.5,0.3,4.5,0.3c3.2,25.9,2.9,52.2-0.6,78c-2.8-0.9-5.8-1.7-9-2.6c-3.3-25.7-3.4-51.8,0-77.5C45.1,39.3,45,39.9,45,39.9z
			"/>
	</g>
	<g id="path3287" class="st6">
		
			<linearGradient id="SVGID_00000096048903093540929280000005652820735594502322_" gradientUnits="userSpaceOnUse" x1="-819.0847" y1="612.5038" x2="-819.0847" y2="642.3731" gradientTransform="matrix(2.3874 0.9528 -5.811204e-02 2.4301 2055.4954 -659.0489)">
			<stop  offset="0" style="stop-color:#000000"/>
			<stop  offset="1" style="stop-color:#000000;stop-opacity:0"/>
		</linearGradient>
		<path style="fill:url(#SVGID_00000096048903093540929280000005652820735594502322_);" d="M36.6,41.2c2,0.7,2.5,2.9,2.4,4.9
			c-1.8,21.2-1.1,42.7,1.9,63.8c0.3,2-0.2,3-2.3,2.3c-2-0.7-3.1-2.9-3.5-4.9c-3.5-21.2-4.1-42.7-1.6-63.8
			C33.7,41.5,34.6,40.5,36.6,41.2z M92,41.6c-2,0.7-2.6,2.8-2.5,4.8c1.2,21.1,1.8,42.5-1.6,63.4c-0.3,2-1.6,3,0.5,2.3
			c2-0.7,3.2-2.9,3.6-4.9c3.9-21,5-42.3,3.1-63.4C94.8,41.9,94.1,40.9,92,41.6z"/>
	</g>
	<g id="path3293" class="st11">
		
			<linearGradient id="SVGID_00000042703061264164110220000014199261471667012020_" gradientUnits="userSpaceOnUse" x1="-817.8126" y1="813.1043" x2="-817.8126" y2="842.6183" gradientTransform="matrix(2.4095 0.1108 0 2.4064 2050.6001 -1821.3538)">
			<stop  offset="0" style="stop-color:#000000"/>
			<stop  offset="1" style="stop-color:#000000;stop-opacity:0"/>
		</linearGradient>
		<path style="fill:url(#SVGID_00000042703061264164110220000014199261471667012020_);" d="M80.1,44c-1.3,0.1-2,1.8-2.1,3.8
			c-2,21.2-1.8,42.7,0.1,63.8c0.2,2,0.8,3.5,2,3.4s1.8-1.8,2-3.8c1.9-21.1,2-42.6,0.1-63.7C82,45.5,81.4,43.9,80.1,44z"/>
	</g>
	<g id="path5337" class="st11">
		
			<linearGradient id="SVGID_00000084506647952851416980000000478708613622002080_" gradientUnits="userSpaceOnUse" x1="-822.6202" y1="813.1653" x2="-822.6202" y2="842.6628" gradientTransform="matrix(2.4095 0.1108 0 2.4064 2039.849 -1821.3538)">
			<stop  offset="0" style="stop-color:#000000"/>
			<stop  offset="1" style="stop-color:#000000;stop-opacity:0"/>
		</linearGradient>
		<path style="fill:url(#SVGID_00000084506647952851416980000000478708613622002080_);" d="M51.2,44c2.1,0.1,2.7,1.8,2.6,3.8
			c-1.1,21.2-1,42.7,0.2,63.8c0.1,2-0.5,3.5-2.5,3.4s-3-1.8-3.2-3.8c-3-21.2-3.2-42.6-0.4-63.7C48.1,45.5,49.2,43.9,51.2,44z
			 M64.4,45.8c-2.1,0.1-2.8,1.8-2.7,3.8c1.1,21.2,0.9,42.7-0.4,63.8c-0.1,2,0.5,3.5,2.4,3.4c1.9-0.1,2.9-1.8,3.2-3.8
			c3.2-21.5,3.6-42.4,0.8-63.8C67.5,47.2,66.5,45.7,64.4,45.8z"/>
	</g>
	<g id="path3045" class="st14">
		
			<linearGradient id="SVGID_00000007391875646010898800000004488100052062961541_" gradientUnits="userSpaceOnUse" x1="-602.2291" y1="1120.1427" x2="-602.2291" y2="1147.9474" gradientTransform="matrix(1.7914 4.283888e-02 -4.334013e-02 1.8123 1192.0759 -1963.0759)">
			<stop  offset="0" style="stop-color:#000000"/>
			<stop  offset="1" style="stop-color:#000000;stop-opacity:0"/>
		</linearGradient>
		<path style="fill:none;stroke:url(#SVGID_00000007391875646010898800000004488100052062961541_);stroke-width:0.5035;" d="
			M36.6,41.6c2,0.7,2.6,2.5,2.4,4.5c-1.8,21.2-1.1,42.7,1.9,63.8c0.3,2-0.2,3-2.3,2.3c-2-0.7-3.1-2.9-3.5-4.9
			c-3.5-21.2-4.1-42.7-1.6-63.8C33.8,41.5,34.6,40.9,36.6,41.6z M92.2,41.6c-2,0.7-2.6,2.8-2.5,4.8c1.3,21.1,1.8,42.5-1.6,63.4
			c-0.3,2-1.6,3,0.5,2.3s3.2-2.9,3.6-4.9c3.9-21,5-42.3,3-63.4C95,41.9,94.3,40.9,92.2,41.6z"/>
	</g>
	<g id="path3823" class="st16">
		
			<linearGradient id="SVGID_00000070092483605066428510000008874506495442187143_" gradientUnits="userSpaceOnUse" x1="-610.0204" y1="1125.8037" x2="-610.0204" y2="1149.1232" gradientTransform="matrix(1.7919 0 0 1.7947 1150.8413 -1979.5831)">
			<stop  offset="0" style="stop-color:#000000"/>
			<stop  offset="1" style="stop-color:#000000;stop-opacity:0"/>
		</linearGradient>
		<path style="fill:none;stroke:url(#SVGID_00000070092483605066428510000008874506495442187143_);stroke-width:0.5;" d="M51.2,44
			c2.1,0.1,2.7,1.8,2.6,3.8c-1.1,21.2-1,42.7,0.2,63.8c0.1,2-0.5,3.5-2.5,3.4s-3-1.8-3.2-3.8c-3-21.2-3.2-42.6-0.4-63.7
			C48.1,45.5,49.2,43.9,51.2,44z M64.4,45.8c-2.1,0.1-2.8,1.8-2.7,3.8c1.1,21.2,0.9,42.7-0.4,63.8c-0.1,2,0.5,3.5,2.4,3.4
			c1.9-0.1,2.9-1.8,3.2-3.8c3.2-21.5,3.6-42.4,0.8-63.8C67.5,47.2,66.5,45.7,64.4,45.8z"/>
	</g>
	<g id="path3833" class="st18">
		
			<linearGradient id="SVGID_00000110468685541563642310000010048580848850128275_" gradientUnits="userSpaceOnUse" x1="-597.556" y1="1126.4827" x2="-597.556" y2="1147.3113" gradientTransform="matrix(1.7919 0 0 1.7947 1150.8413 -1979.5831)">
			<stop  offset="0" style="stop-color:#000000"/>
			<stop  offset="1" style="stop-color:#000000;stop-opacity:0"/>
		</linearGradient>
		<path style="fill:none;stroke:url(#SVGID_00000110468685541563642310000010048580848850128275_);stroke-width:0.398;" d="M80.1,44
			c-1.3,0.1-2,1.8-2.1,3.8c-2,21.2-1.8,42.7,0.1,63.8c0.2,2,0.8,3.5,2,3.4s1.8-1.8,2-3.8c1.9-21.1,2-42.6,0.1-63.7
			C82,45.5,81.4,43.9,80.1,44z"/>
	</g>
	<path class="st20" d="M27.2,33.8c-0.3-1.9,18.4-4.9,36.9-4.5c17.3,0.2,35.3,4.1,35.6,5.1c-0.5,1.9-19,5.5-32.9,5.6
		C51,40,27.6,35.7,27.2,33.8z"/>
</g>
<g id="Layer_4">
	<g id="TRASH">
		<g>
			<path class="st21" d="M49.8,36.5c2.6,2.2,16,3,13.2,0.8c-11.9-9.2,5.3-5.3,3.6-7.1c-2.3-2.3-14.2-3.5-13.2-0.8
				C55.8,36,47.7,34.7,49.8,36.5z"/>
			<path class="st22" d="M57.6,28.5c-0.2,4.9-16.9,12.4-16.3,7.5c2.6-20.8-14.5-6.4-14.8-10.1c-0.3-4.9,13.8-12.4,16.3-7.5
				C48.8,30.5,57.7,24.6,57.6,28.5z"/>
			<path class="st22" d="M56.1,20.8C64,23.2,71.8,35.5,64,33c-33.3-10.8-14.4,4.9-20.5,3.4c-8.1-2-16.5-13.1-7.9-12.2
				C56.9,26.4,49.8,19,56.1,20.8z"/>
			<path class="st22" d="M82.4,21.7c7.9,2.3,15.7,14.7,7.9,12.2C57.1,23,76,38.8,69.9,37.2c-8.1-2-16.5-13.1-7.9-12.2
				C83.3,27.3,76.1,19.8,82.4,21.7z"/>
			<path class="st23" d="M78.4,17.4c-5.3-1.8-24,6.2-18.5,7.7c23.7,6.5-2.6,12.1,1.1,13.8c5,2.2,22-4.2,18.5-7.7
				C70.7,22.4,82.7,18.8,78.4,17.4z"/>
			<path class="st23" d="M66.7,40.2c5.5-0.9,6.3-14.9,1-13.6c-22.6,5.3-14.2-10.1-18.5-9.7c-5.8,0.5-7.7,12.6-1,13.6
				C64.8,33.2,62.3,41,66.7,40.2z"/>
			<path class="st24" d="M89.5,36.8c-5.5,2-21.9,0.3-16.3-1.7c24.2-8.2-0.1-7.2,3.9-8.9c5.3-2.2,20.4-1.2,16.3,1.7
				C83,35,93.9,35.1,89.5,36.8z"/>
		</g>
	</g>
</g>
<g id="Layer_2_00000013881128292421934920000012104146574851131272_">
	
		<radialGradient id="path4333_00000173864030053158109890000004804256724379439292_" cx="236.1318" cy="6916.978" r="37.0097" gradientTransform="matrix(0.8072 0 0 0.2393 -134.3056 -1634.0328)" gradientUnits="userSpaceOnUse">
		<stop  offset="0" style="stop-color:#000000"/>
		<stop  offset="1" style="stop-color:#000000;stop-opacity:0"/>
	</radialGradient>
	
		<ellipse id="path4333_00000024701374192931035340000004080486512162425501_" style="fill:url(#path4333_00000173864030053158109890000004804256724379439292_);" cx="56.3" cy="21.2" rx="29.9" ry="8.9"/>
</g>
<g id="Layer_3">
	<g id="LID">
		<g>
			
				<linearGradient id="path5418_00000020358619222692784760000017986497012298909835_" gradientUnits="userSpaceOnUse" x1="-733.7402" y1="869.9451" x2="-749.0391" y2="869.9451" gradientTransform="matrix(2.6613 0.8923 -0.5178 1.5443 2503.6316 -658.1133)">
				<stop  offset="0" style="stop-color:#8D909A"/>
				<stop  offset="1" style="stop-color:#E5E5E5"/>
			</linearGradient>
			<path id="path5418" style="fill:url(#path5418_00000020358619222692784760000017986497012298909835_);" d="M68.4,10.3
				C58.2,6.9,48.8,4.1,41.8,3.1c-3.5-0.5-6.3-0.6-8.1-0.5c-1.9,0.1-2.5,0.8-2.7,1.2l-2,6c-0.1,0.4,0,1.3,1.4,2.6
				c1.4,1.2,3.6,2.8,6.7,4.5c6.2,3.3,15.2,7.2,25.5,10.6s19.8,5.8,26.7,6.9c3.5,0.5,6.3,0.5,8.1,0.4c1.9-0.1,2.5-0.7,2.6-1.1l2-6
				c0.1-0.2,0.1-0.5-0.1-1s-0.6-1-1.3-1.6c-1.4-1.2-3.7-2.7-6.8-4.3C87.8,17.4,78.7,13.8,68.4,10.3z"/>
			<path id="path5019-9" class="st27" d="M68.4,10.3C48.8,3.7,32.1,0.6,31.1,3.8l-1.9,5.8C28,12.9,43.1,20.8,62.7,27.4
				s36.4,9.3,37.5,6.1l1.9-5.8C103.3,24.5,88.1,16.9,68.4,10.3z"/>
			
				<radialGradient id="path3914_00000055694792101312557590000013295148266100015234_" cx="-1296.7048" cy="-1113.6974" r="7" gradientTransform="matrix(6.1804 -6.770233e-02 -0.5351 -1.7294 7482.2783 -1998.8326)" gradientUnits="userSpaceOnUse">
				<stop  offset="0" style="stop-color:#8D909A"/>
				<stop  offset="1" style="stop-color:#E5E5E5"/>
			</radialGradient>
			
				<path id="path3914" style="opacity:0.7;fill:url(#path3914_00000055694792101312557590000013295148266100015234_);enable-background:new    ;" d="
				M101.8,27.6c1-3-13.9-10.8-33.2-17.2s-36-9.3-37-6.3s13.9,10.8,33.2,17.2S100.8,30.6,101.8,27.6z"/>
			
				<linearGradient id="path4564-1-6_00000019641326685367341880000013997871267989590173_" gradientUnits="userSpaceOnUse" x1="-915.3114" y1="-1206.5653" x2="-915.3114" y2="-1191.7733" gradientTransform="matrix(3.6076 1.2096 0.3622 -1.0803 3805.3396 -179.4294)">
				<stop  offset="0" style="stop-color:#FFFFFF"/>
				<stop  offset="9.090912e-02" style="stop-color:#FFFFFF;stop-opacity:0.2353"/>
				<stop  offset="0.8182" style="stop-color:#FFFFFF;stop-opacity:0.1569"/>
				<stop  offset="1" style="stop-color:#FFFFFF;stop-opacity:0.3922"/>
			</linearGradient>
			
				<path id="path4564-1-6" style="opacity:0.7;fill:none;stroke:url(#path4564-1-6_00000019641326685367341880000013997871267989590173_);stroke-width:0.8018;stroke-linecap:round;stroke-linejoin:round;enable-background:new    ;" d="
				M101.1,27.7c1-2.9-13.7-10.4-32.9-16.8S32.9,1.7,31.9,4.5l0,0c-1,2.9,13.8,10.4,32.9,16.8S100.1,30.6,101.1,27.7z"/>
			
				<ellipse id="path4319" transform="matrix(0.3179 -0.9481 0.9481 0.3179 27.7284 61.3285)" class="st30" cx="56.5" cy="11.4" rx="1.3" ry="4"/>
			
				<ellipse id="ellipse4329" transform="matrix(0.3179 -0.9481 0.9481 0.3179 35.1873 85.9427)" class="st30" cx="77.3" cy="18.5" rx="1.3" ry="4"/>
			
				<radialGradient id="path3902_00000109014790924816710040000005558379672203212186_" cx="-352.5001" cy="1821.3818" r="7.5" gradientTransform="matrix(1.6989 0.5696 -0.2445 0.7293 1111.5693 -1113.7036)" gradientUnits="userSpaceOnUse">
				<stop  offset="0" style="stop-color:#424242"/>
				<stop  offset="1" style="stop-color:#DBDBDB"/>
			</radialGradient>
			
				<path id="path3902" style="fill:url(#path3902_00000109014790924816710040000005558379672203212186_);stroke:#161B28;stroke-width:0.8018;stroke-opacity:0.498;" d="
				M54.3,10l1.4-4.3c0.4-1.1,2.8-2.1,6.5-0.9l14.7,4.9c3.6,1.2,4.8,3.4,4.4,4.6l-1.4,4.3c-0.4,1.1-5.1-0.5-4.7-1.6l1.1-3.2
				c0.4-1.1-2.1-1.7-2.1-1.7L63,8.5c0,0-2.5-1.2-2.9,0L59,11.6C58.7,12.8,53.9,11.2,54.3,10z"/>
			<path id="path4366" class="st32" d="M61.3,5.2l16.5,5.6"/>
		</g>
	</g>
</g>
</svg>
