<?xml version="1.0" encoding="utf-8"?>
<!-- Generator: Adobe Illustrator 27.0.1, SVG Export Plug-In . SVG Version: 6.00 Build 0)  -->
<svg version="1.1" id="Layer_1" xmlns="http://www.w3.org/2000/svg" xmlns:xlink="http://www.w3.org/1999/xlink" x="0px" y="0px"
	 viewBox="0 0 128 128" style="enable-background:new 0 0 128 128;" xml:space="preserve">
<style type="text/css">
	.st0{fill:url(#path4333_00000049203482158810890360000012544399467386377914_);}
	.st1{fill:url(#path2230_00000015329900664070028160000001369596967185049224_);}
	.st2{fill:none;stroke:#161B28;stroke-opacity:0.498;}
	.st3{opacity:0.4;fill:url(#path3212_00000015317234902391469720000002067161121493968316_);enable-background:new    ;}
	
		.st4{opacity:0.15;fill:none;stroke:url(#path2206_00000122690202738825156320000010506815344769351821_);stroke-linecap:round;stroke-linejoin:round;enable-background:new    ;}
	.st5{opacity:0.2;fill:url(#rect3244_00000109013994298090964620000009717169949534889375_);enable-background:new    ;}
	.st6{opacity:0.15;fill:url(#path3287_00000095328515535851426680000005772634756287633073_);enable-background:new    ;}
	.st7{opacity:0.3;fill:url(#path3293_00000129891478630246139130000009398160030305324691_);enable-background:new    ;}
	.st8{opacity:0.3;fill:url(#path5337_00000148631511490654326350000015488384339517573043_);enable-background:new    ;}
	
		.st9{opacity:0.3506;fill:none;stroke:url(#path3045_00000067229014172197895950000001957536673311454399_);stroke-width:0.5;enable-background:new    ;}
	
		.st10{opacity:0.4329;fill:none;stroke:url(#path3823_00000183246253375066796710000014525543083903722122_);stroke-width:0.5;enable-background:new    ;}
	
		.st11{opacity:0.4632;fill:none;stroke:url(#path3833_00000026154059756872904510000000059518070150678163_);stroke-width:0.5;enable-background:new    ;}
	.st12{fill:url(#path5418_00000060748642799571988220000009678015402156308912_);}
	.st13{fill:none;stroke:#161B28;stroke-width:0.8018;stroke-opacity:0.498;}
	.st14{opacity:0.7;fill:url(#path3914_00000147931835415334437790000001220452403212630428_);enable-background:new    ;}
	
		.st15{opacity:0.7;fill:none;stroke:url(#path4564-1-6_00000126322429929996324350000012489130195018637999_);stroke-width:0.8018;stroke-linecap:round;stroke-linejoin:round;enable-background:new    ;}
	.st16{opacity:0.1;enable-background:new    ;}
	
		.st17{fill:url(#path3902_00000101064298680286264760000014002229370263690164_);stroke:#161B28;stroke-width:0.8018;stroke-opacity:0.498;}
	.st18{opacity:0.5;fill:none;stroke:#FFFFFF;stroke-width:0.8018;stroke-linecap:round;enable-background:new    ;}
</style>
<g id="CAN" xmlns:cc="http://creativecommons.org/ns#" xmlns:dc="http://purl.org/dc/elements/1.1/" xmlns:rdf="http://www.w3.org/1999/02/22-rdf-syntax-ns#" xmlns:svg="http://www.w3.org/2000/svg">
	
		<radialGradient id="path4333_00000114060969036945976840000009722650062335194274_" cx="64" cy="-2569.188" r="37.0567" gradientTransform="matrix(1 0 0 -0.3395 0 -762.8394)" gradientUnits="userSpaceOnUse">
		<stop  offset="0" style="stop-color:#000000"/>
		<stop  offset="1" style="stop-color:#000000;stop-opacity:0"/>
	</radialGradient>
	
		<ellipse id="path4333" style="fill:url(#path4333_00000114060969036945976840000009722650062335194274_);" cx="64" cy="109.4" rx="37" ry="12.6"/>
	
		<linearGradient id="path2230_00000085224552260600961330000010953041475278632339_" gradientUnits="userSpaceOnUse" x1="-466.0106" y1="147.3706" x2="-456.4267" y2="147.3706" gradientTransform="matrix(2.9503 0 0 -3.4716 1411.553 588.1119)">
		<stop  offset="0" style="stop-color:#8D909A"/>
		<stop  offset="1" style="stop-color:#D9D9D9"/>
	</linearGradient>
	<path id="path2230" style="fill:url(#path2230_00000085224552260600961330000010953041475278632339_);" d="M29.5,33.4v73.1
		c0,6.7,10.8,13.1,35.4,13.1s33.6-6.3,33.6-13.1V33.4H29.5z"/>
	<path id="path4368" class="st2" d="M29.5,33.4v73.1c0,6.7,10.8,13.1,35.4,13.1s33.6-6.3,33.6-13.1V33.4H29.5z"/>
	
		<radialGradient id="path3212_00000155826137316061716860000009007805400226156696_" cx="-457.9615" cy="620.8933" r="14.5002" gradientTransform="matrix(0 4.041 3.9962 0 -2440.9426 1892.8369)" gradientUnits="userSpaceOnUse">
		<stop  offset="0" style="stop-color:#FFFFFF"/>
		<stop  offset="1" style="stop-color:#FFFFFF;stop-opacity:0"/>
	</radialGradient>
	
		<path id="path3212" style="opacity:0.4;fill:url(#path3212_00000155826137316061716860000009007805400226156696_);enable-background:new    ;" d="
		M30,30.4V105c0,6.8,15.2,14.4,34,14.4s34-7.6,34-14.4V30.4H30z"/>
	
		<linearGradient id="path2206_00000173160967799391042290000010133129648490812554_" gradientUnits="userSpaceOnUse" x1="-463.5366" y1="235.8955" x2="-463.5366" y2="209.0729" gradientTransform="matrix(3.0601 0 0 -4.6826 1482.4683 1098.9109)">
		<stop  offset="0" style="stop-color:#FFFFFF"/>
		<stop  offset="1" style="stop-color:#FFFFFF;stop-opacity:0"/>
	</linearGradient>
	
		<path id="path2206" style="opacity:0.15;fill:none;stroke:url(#path2206_00000173160967799391042290000010133129648490812554_);stroke-linecap:round;stroke-linejoin:round;enable-background:new    ;" d="
		M30.5,27.5v79.3c0,6.5,26.6,11.4,34.4,11.7c7.9,0.3,32.6-5.2,32.6-11.7c0-5-0.1-74.4,0-79.3C97.6,22.9,30.5,22.8,30.5,27.5z"/>
	
		<linearGradient id="rect3244_00000134952734025866596510000007263600186730967453_" gradientUnits="userSpaceOnUse" x1="-375.4938" y1="131.548" x2="-370.6188" y2="117.6051" gradientTransform="matrix(2.1601 0 0 -3.2093 857.2007 477.116)">
		<stop  offset="0" style="stop-color:#FFFFFF"/>
		<stop  offset="1" style="stop-color:#FFFFFF;stop-opacity:0"/>
	</linearGradient>
	
		<path id="rect3244" style="opacity:0.2;fill:url(#rect3244_00000134952734025866596510000007263600186730967453_);enable-background:new    ;" d="
		M46.5,39.9l10.8,2v78l-10.8-2.6V39.9L46.5,39.9z"/>
	
		<linearGradient id="path3287_00000042728019133423202890000012321145350065089678_" gradientUnits="userSpaceOnUse" x1="-399.3052" y1="145.3874" x2="-399.3052" y2="115.8935" gradientTransform="matrix(2.4095 0.8865 0 -2.4064 1026.1257 754.0268)">
		<stop  offset="0" style="stop-color:#000000"/>
		<stop  offset="1" style="stop-color:#000000;stop-opacity:0"/>
	</linearGradient>
	
		<path id="path3287" style="opacity:0.15;fill:url(#path3287_00000042728019133423202890000012321145350065089678_);enable-background:new    ;" d="
		M38.9,41.2c2,0.7,2.7,2.9,2.7,4.9v63.8c0,2-0.7,3-2.7,2.3s-2.7-2.9-2.7-4.9V43.5C36.2,41.5,36.9,40.5,38.9,41.2z M89.1,41.6
		c-2,0.7-2.7,2.8-2.7,4.8v62.8c0,2,0.7,3,2.7,2.3s2.7-2.9,2.7-4.9V43.8C91.8,41.8,91.1,40.9,89.1,41.6z"/>
	
		<linearGradient id="path3293_00000144311639467642224660000006079734556558838412_" gradientUnits="userSpaceOnUse" x1="-396.361" y1="46.6654" x2="-396.361" y2="17.1471" gradientTransform="matrix(2.4095 0.1108 0 -2.4064 1031.5317 200.8882)">
		<stop  offset="0" style="stop-color:#000000"/>
		<stop  offset="1" style="stop-color:#000000;stop-opacity:0"/>
	</linearGradient>
	
		<path id="path3293" style="opacity:0.3;fill:url(#path3293_00000144311639467642224660000006079734556558838412_);enable-background:new    ;" d="
		M76.5,44c-2,0.1-2.7,1.8-2.7,3.8v63.8c0,2,0.7,3.5,2.7,3.4s2.7-1.8,2.7-3.8V47.5C79.2,45.5,78.5,43.9,76.5,44z"/>
	
		<linearGradient id="path5337_00000075841211214310723000000014119676054343989895_" gradientUnits="userSpaceOnUse" x1="-399.6824" y1="46.674" x2="-399.6824" y2="17.1762" gradientTransform="matrix(2.4095 0.1108 0 -2.4064 1020.7806 200.8882)">
		<stop  offset="0" style="stop-color:#000000"/>
		<stop  offset="1" style="stop-color:#000000;stop-opacity:0"/>
	</linearGradient>
	
		<path id="path5337" style="opacity:0.3;fill:url(#path5337_00000075841211214310723000000014119676054343989895_);enable-background:new    ;" d="
		M51.5,44c2,0.1,2.7,1.8,2.7,3.8v63.8c0,2-0.7,3.5-2.7,3.4s-2.7-1.8-2.7-3.8V47.5C48.7,45.5,49.5,43.9,51.5,44z M64,45.8
		c-2,0.1-2.7,1.8-2.7,3.8v63.8c0,2,0.7,3.5,2.7,3.4s2.7-1.8,2.7-3.8V49.2C66.7,47.2,66,45.7,64,45.8z"/>
	
		<linearGradient id="path3045_00000082334806014344766160000001828978567253088394_" gradientUnits="userSpaceOnUse" x1="-287.0125" y1="-110.8936" x2="-287.0125" y2="-138.5161" gradientTransform="matrix(1.7919 0 0 -1.7947 578.2976 -157.2264)">
		<stop  offset="0" style="stop-color:#000000"/>
		<stop  offset="1" style="stop-color:#000000;stop-opacity:0"/>
	</linearGradient>
	
		<path id="path3045" style="opacity:0.3506;fill:none;stroke:url(#path3045_00000082334806014344766160000001828978567253088394_);stroke-width:0.5;enable-background:new    ;" d="
		M38.9,41.6c2,0.7,2.7,2.5,2.7,4.5v63.8c0,2-0.7,3-2.7,2.3s-2.7-2.9-2.7-4.9V43.5C36.2,41.5,36.9,40.9,38.9,41.6z M89.1,41.6
		c-2,0.7-2.7,2.8-2.7,4.8v62.8c0,2,0.7,3,2.7,2.3s2.7-2.9,2.7-4.9V43.8C91.8,41.8,91.1,40.9,89.1,41.6z"/>
	
		<linearGradient id="path3823_00000026885910648983955390000016586474982473369253_" gradientUnits="userSpaceOnUse" x1="-290.5027" y1="-111.5079" x2="-290.5027" y2="-134.8273" gradientTransform="matrix(1.7919 0 0 -1.7947 578.2976 -159.2264)">
		<stop  offset="0" style="stop-color:#000000"/>
		<stop  offset="1" style="stop-color:#000000;stop-opacity:0"/>
	</linearGradient>
	
		<path id="path3823" style="opacity:0.4329;fill:none;stroke:url(#path3823_00000026885910648983955390000016586474982473369253_);stroke-width:0.5;enable-background:new    ;" d="
		M51.5,44c2,0.1,2.7,1.8,2.7,3.8v63.8c0,2-0.7,3.5-2.7,3.4s-2.7-1.8-2.7-3.8V47.5C48.7,45.5,49.5,43.9,51.5,44z M64,45.8
		c-2,0.1-2.7,1.8-2.7,3.8v63.8c0,2,0.7,3.5,2.7,3.4s2.7-1.8,2.7-3.8V49.2C66.7,47.2,66,45.7,64,45.8z"/>
	
		<linearGradient id="path3833_00000031174504489832442280000012093141767670156418_" gradientUnits="userSpaceOnUse" x1="-280.0366" y1="-112.1307" x2="-280.0366" y2="-133.0125" gradientTransform="matrix(1.7919 0 0 -1.7947 578.2976 -159.2264)">
		<stop  offset="0" style="stop-color:#000000"/>
		<stop  offset="1" style="stop-color:#000000;stop-opacity:0"/>
	</linearGradient>
	
		<path id="path3833" style="opacity:0.4632;fill:none;stroke:url(#path3833_00000031174504489832442280000012093141767670156418_);stroke-width:0.5;enable-background:new    ;" d="
		M76.5,44c-2,0.1-2.7,1.8-2.7,3.8v63.8c0,2,0.7,3.5,2.7,3.4s2.7-1.8,2.7-3.8V47.5C79.2,45.5,78.5,43.9,76.5,44z"/>
</g>
<g id="LID_00000101785377912122666070000014787016498371892867_">
	<g id="LID">
		<g>
			
				<linearGradient id="path5418_00000021096546575284617990000007845630039373189521_" gradientUnits="userSpaceOnUse" x1="-399.4256" y1="-35.089" x2="-414.7245" y2="-35.089" gradientTransform="matrix(2.8067 2.971054e-02 1.725552e-02 -1.6287 1222.5593 -14.1865)">
				<stop  offset="0" style="stop-color:#8D909A"/>
				<stop  offset="1" style="stop-color:#E5E5E5"/>
			</linearGradient>
			
				<path id="path5418_00000103947621141034564150000012792809359255013550_" style="fill:url(#path5418_00000021096546575284617990000007845630039373189521_);" d="
				M64.1,21.7c-10.8-0.1-20.6,0.1-27.5,1.3c-3.5,0.6-6.2,1.4-7.9,2c-1.8,0.7-2.1,1.5-2.2,2l-0.1,6.3c0,0.4,0.4,1.2,2.1,2
				c1.7,0.7,4.3,1.6,7.8,2.2c6.9,1.2,16.7,2.2,27.5,2.2s20.6-0.6,27.5-1.7c3.5-0.6,6.1-1.5,7.8-2.1c1.8-0.7,2.2-1.4,2.1-1.8l0.1-6.3
				c0-0.2-0.1-0.5-0.4-0.9s-0.9-0.8-1.7-1.1c-1.7-0.7-4.4-1.4-7.8-2C84.8,22.5,75,21.9,64.1,21.7z"/>
			<path id="path5019-9_00000183965503558158667030000002797378172392379824_" class="st13" d="M64.1,21.7
				c-20.7-0.2-37.5,1.9-37.5,5.3v6.1c-0.1,3.5,16.7,6.4,37.4,6.6c20.7,0.2,37.5-2.4,37.6-5.7v-6.1C101.7,24.5,84.9,21.9,64.1,21.7z"
				/>
			
				<radialGradient id="path3914_00000139261280425967049180000012672958433239161510_" cx="-663.1866" cy="1036.8307" r="7" gradientTransform="matrix(5.8594 -1.967 1.0415 1.4807 2867.4475 -2812.2456)" gradientUnits="userSpaceOnUse">
				<stop  offset="0" style="stop-color:#8D909A"/>
				<stop  offset="1" style="stop-color:#E5E5E5"/>
			</radialGradient>
			
				<path id="path3914_00000002364081777656167220000013426357574246256546_" style="opacity:0.7;fill:url(#path3914_00000139261280425967049180000012672958433239161510_);enable-background:new    ;" d="
				M101.2,27.9c0-3.2-16.5-6-36.9-6.1C44,21.6,27.2,24,27.2,27.1c0,3.2,16.5,6,36.9,6.1S101.2,31,101.2,27.9z"/>
			
				<linearGradient id="path4564-1-6_00000153678105076067142590000012892950804606351491_" gradientUnits="userSpaceOnUse" x1="-479.0325" y1="1133.1864" x2="-479.0325" y2="1118.3944" gradientTransform="matrix(3.8048 4.029170e-02 -1.205007e-02 1.1393 1900.3695 -1243.1661)">
				<stop  offset="0" style="stop-color:#FFFFFF"/>
				<stop  offset="9.090912e-02" style="stop-color:#FFFFFF;stop-opacity:0.2353"/>
				<stop  offset="0.8182" style="stop-color:#FFFFFF;stop-opacity:0.1569"/>
				<stop  offset="1" style="stop-color:#FFFFFF;stop-opacity:0.3922"/>
			</linearGradient>
			
				<path id="path4564-1-6_00000023264482821092592650000011887480361327114662_" style="opacity:0.7;fill:none;stroke:url(#path4564-1-6_00000153678105076067142590000012892950804606351491_);stroke-width:0.8018;stroke-linecap:round;stroke-linejoin:round;enable-background:new    ;" d="
				M100.6,28.2c0.1-3.1-16.2-5.7-36.5-5.9s-36.4,2.1-36.5,5.1l0,0c-0.1,3.1,16.3,5.6,36.5,5.9C84.2,33.5,100.5,31.3,100.6,28.2z"/>
			
				<ellipse id="path4319_00000170237457431183344630000018201148855063292044_" transform="matrix(1.059867e-02 -0.9999 0.9999 1.059867e-02 26.1284 79.2419)" class="st16" cx="53.1" cy="26.4" rx="1.3" ry="4"/>
			
				<ellipse id="ellipse4329_00000128481525807592760960000008412838506018307484_" transform="matrix(1.059867e-02 -0.9999 0.9999 1.059867e-02 47.6093 101.5466)" class="st16" cx="75.1" cy="26.7" rx="1.3" ry="4"/>
			
				<radialGradient id="path3902_00000120556340164113124680000010034545538380493959_" cx="-238.3573" cy="-568.7469" r="7.5" gradientTransform="matrix(1.7917 1.894777e-02 8.118040e-03 -0.7692 495.9106 -407.5665)" gradientUnits="userSpaceOnUse">
				<stop  offset="0" style="stop-color:#424242"/>
				<stop  offset="1" style="stop-color:#DBDBDB"/>
			</radialGradient>
			
				<path id="path3902_00000099630240870185743050000014582558464339377040_" style="fill:url(#path3902_00000120556340164113124680000010034545538380493959_);stroke:#161B28;stroke-width:0.8018;stroke-opacity:0.498;" d="
				M50.6,25.8v-4.5c0-1.2,2-2.9,5.9-2.9L72,18.5c3.8,0,5.6,1.8,5.6,3V26c0,1.2-5,1.1-5-0.1l0.1-3.4c0-1.2-2.5-1-2.5-1H58.4
				c0,0-2.7-0.4-2.8,0.9l-0.1,3.3C55.7,27.1,50.6,27,50.6,25.8z"/>
			<path id="path4366_00000039125658892591631950000001265152277496600464_" class="st18" d="M55.8,19l17.4,0.2"/>
		</g>
	</g>
</g>
</svg>
